<?xml version="1.0" encoding="utf-8"?>
<!-- Generator: Adobe Illustrator 21.0.0, SVG Export Plug-In . SVG Version: 6.00 Build 0)  -->
<svg version="1.1" id="Capa_1" xmlns="http://www.w3.org/2000/svg" xmlns:xlink="http://www.w3.org/1999/xlink" x="0px" y="0px"
	 viewBox="0 0 456 456" style="enable-background:new 0 0 456 456;" xml:space="preserve">
<style type="text/css">
	.st0{fill:#FFFFFF;}
</style>
<path class="st0" d="M356,128c0-35.3-28.7-64-64-64c-32.6,0-59.5,24.5-63.5,56H196V72c0-11.7-7.6-25.1-17.6-31.1L112.1,1.1
	c-3.8-2.3-8.7-1-11,2.7c-2.3,3.8-1,8.7,2.7,11l66.3,39.8C175.3,57.7,180,66,180,72v48h-48c-4.4,0-8,3.6-8,8v288
	c0,22.1,17.9,40,40,40h96c22.1,0,40-17.9,40-40V191.5C331.5,187.5,356,160.6,356,128z M252.9,155.8c-4.2-5.9-7-12.7-8.2-19.8h28
	L252.9,155.8z M284,416c0,13.2-10.8,24-24,24h-96c-13.2,0-24-10.8-24-24V136h40v72h-24c-4.4,0-8,3.6-8,8s3.6,8,8,8h24v192
	c0,4.4,3.6,8,8,8s8-3.6,8-8V224h72c4.4,0,8-3.6,8-8s-3.6-8-8-8h-72v-72h32.5c1.6,12.7,6.9,24.6,15.5,34.3c0.8,0.9,1.5,1.7,2.3,2.5
	c0.5,0.5,1.1,1,1.7,1.3c1.3,0.9,2.9,1.4,4.5,1.4c2,0,4.1-0.8,5.7-2.3l25.8-25.8L284,416L284,416z M300,175.3V128c0-0.3,0-0.5,0-0.8
	c0-0.1,0-0.2,0-0.3c0-0.1,0-0.3-0.1-0.4c0-0.1-0.1-0.3-0.1-0.4c0-0.1-0.1-0.2-0.1-0.4c0-0.1-0.1-0.3-0.1-0.4c0-0.1-0.1-0.2-0.1-0.4
	c0-0.1-0.1-0.2-0.2-0.3c-0.1-0.1-0.1-0.2-0.2-0.4c-0.1-0.1-0.1-0.2-0.2-0.3c-0.1-0.1-0.1-0.2-0.2-0.3c-0.1-0.1-0.2-0.2-0.3-0.4
	c-0.1-0.1-0.1-0.2-0.2-0.3c-0.3-0.4-0.7-0.8-1.1-1.1c-0.1-0.1-0.2-0.1-0.3-0.2c-0.1-0.1-0.2-0.2-0.4-0.3c-0.1-0.1-0.2-0.1-0.3-0.2
	c-0.1-0.1-0.2-0.1-0.3-0.2c-0.1-0.1-0.2-0.1-0.3-0.2c-0.1-0.1-0.2-0.1-0.4-0.2c-0.1,0-0.2-0.1-0.3-0.1c-0.1,0-0.3-0.1-0.4-0.1
	c-0.1,0-0.2-0.1-0.3-0.1c-0.1,0-0.3-0.1-0.4-0.1c-0.1,0-0.3,0-0.4-0.1c-0.1,0-0.3,0-0.4-0.1c-0.2,0-0.5,0-0.7,0c0,0-0.1,0-0.1,0
	h-47.3c3.8-22.7,23.6-40,47.3-40c26.5,0,48,21.5,48,48C340,151.7,322.7,171.5,300,175.3z"/>
</svg>
