<?xml version="1.0" encoding="utf-8"?>
<!-- Generator: Adobe Illustrator 21.0.0, SVG Export Plug-In . SVG Version: 6.00 Build 0)  -->
<svg version="1.1" id="Layer_1" xmlns="http://www.w3.org/2000/svg" xmlns:xlink="http://www.w3.org/1999/xlink" x="0px" y="0px"
	 viewBox="0 0 442.6 450.5" style="enable-background:new 0 0 442.6 450.5;" xml:space="preserve">
<style type="text/css">
	.st0{fill:none;stroke:#FFFFFF;stroke-width:25.5118;stroke-miterlimit:10;}
	.st1{fill:none;stroke:#FFFFFF;stroke-width:25.5118;stroke-linecap:round;stroke-linejoin:round;stroke-miterlimit:10;}
</style>
<g>
	<path class="st0" d="M429.8,219.9c0.8,118.9-99.1,215-217.9,209.7c-28.4-1.3-55.3-8.2-79.6-19.7c-0.9-0.4-1.9-0.5-2.9-0.1L92.8,424
		l-34.5,13.4c-2.6,1-5.3-1.2-4.9-3.9l5.6-36.6l5.6-36.1c0.2-1.1-0.2-2.1-0.9-2.9c-31.3-36.1-50.5-83-51-134.4
		C11.6,109.1,103.8,14.4,218.3,12.8C334.3,11.1,429,104.3,429.8,219.9z"/>
	<g>
		<line class="st1" x1="166.5" y1="280" x2="276.1" y2="170.4"/>
		<line class="st1" x1="166.5" y1="170.4" x2="276.1" y2="280"/>
	</g>
</g>
</svg>
