<?xml version="1.0" encoding="utf-8"?>
<!-- Generator: Adobe Illustrator 21.0.0, SVG Export Plug-In . SVG Version: 6.00 Build 0)  -->
<svg version="1.1" id="Capa_1" xmlns="http://www.w3.org/2000/svg" xmlns:xlink="http://www.w3.org/1999/xlink" x="0px" y="0px"
	 viewBox="0 0 448 448" style="enable-background:new 0 0 448 448;" xml:space="preserve">
<style type="text/css">
	.st0{fill:#FFFFFF;}
</style>
<g>
	<path class="st0" d="M440,324h-8.2c-4.1-108.3-91.5-195.7-199.8-199.8V116h4c11,0,20-9,20-20s-9-20-20-20h-24c-11,0-20,9-20,20
		s9,20,20,20h4v8.2C107.7,128.3,20.3,215.7,16.2,324H8c-4.4,0-8,3.6-8,8s3.6,8,8,8h9.8l3.3,10.8C24.4,362.7,36.6,372,49,372h350
		c12.4,0,24.6-9.3,27.9-21.3L430,340h10c4.4,0,8-3.6,8-8S444.4,324,440,324z M208,96c0-2.2,1.8-4,4-4h24c2.2,0,4,1.8,4,4s-1.8,4-4,4
		h-24C209.8,100,208,98.2,208,96z M411.5,346.5c-1.4,5-7.3,9.5-12.5,9.5H49c-5.2,0-11.1-4.5-12.5-9.5c0-0.1-0.1-0.2-0.1-0.3
		l-1.9-6.2H352c4.4,0,8-3.6,8-8s-3.6-8-8-8H32.2c4.2-102.2,88.6-184,191.8-184s187.6,81.8,191.8,184H384c-4.4,0-8,3.6-8,8s3.6,8,8,8
		h29.3l-1.8,6.3C411.5,346.4,411.5,346.4,411.5,346.5z"/>
	<path class="st0" d="M319.3,184c-3.7-2.4-8.7-1.3-11.1,2.4c-2.4,3.7-1.3,8.7,2.4,11.1c15.2,9.8,28.6,22.1,39.8,36.4
		c1.6,2,3.9,3.1,6.3,3.1c1.7,0,3.4-0.5,4.9-1.7c3.5-2.7,4.1-7.7,1.4-11.2C350.8,208.3,336.1,194.9,319.3,184z"/>
	<path class="st0" d="M291,169.2c-6.5-2.7-13.2-5-19.9-6.8c-4.3-1.2-8.7,1.3-9.8,5.6c-1.2,4.3,1.3,8.7,5.6,9.8
		c6.1,1.7,12.2,3.8,18.1,6.2c1,0.4,2,0.6,3,0.6c3.1,0,6.1-1.9,7.4-5C297.1,175.6,295.1,170.9,291,169.2z"/>
</g>
</svg>
